<svg version="1.2" xmlns="http://www.w3.org/2000/svg" viewBox="0 0 24 24" width="24" height="24"><style>.a{fill:#5691bc}</style><path fill-rule="evenodd" class="a" d="m24 4.5v14.9c0 2.4-1.9 4.3-4.3 4.3h-15.4c-2.4 0-4.3-1.9-4.3-4.3v-14.9c0-2.3 1.9-4.2 4.3-4.2h15.4c2.4 0 4.3 1.9 4.3 4.3zm-11 5.2q0-0.7-0.3-1.3-0.2-0.6-0.7-1.1-0.6-0.6-1.3-0.8-0.9-0.4-2.1-0.3-0.4-0.1-0.9 0-0.5 0-0.9 0-0.4 0-0.7 0c-0.3 0-0.4 0-0.6 0q-0.1 0-0.1 0.1v10.3q0 0.1 0.1 0.1h2q0.1 0 0.1-0.1v-3.2q0.3 0 0.4 0 0.1 0 0.5 0c0.8 0 1.6-0.1 2.3-0.3 0.6-0.3 1.2-0.7 1.6-1.2q0.6-0.9 0.6-2.2zm-2.4-0.8q0.2 0.4 0.2 0.9 0 0.6-0.3 1-0.4 0.4-0.8 0.5-0.6 0.2-1.2 0.2h-0.5q-0.2 0-0.4 0v-3.4q0.1 0 0.4 0 0.3 0 0.7 0 0.6 0 1.1 0.2 0.5 0.2 0.8 0.6zm9.2 5.5q0.1-0.5-0.2-1-0.3-0.5-0.8-0.9-0.7-0.4-1.5-0.7-0.4-0.1-0.7-0.3-0.2-0.1-0.4-0.3-0.1-0.1-0.1-0.2 0-0.2 0.1-0.3 0.1-0.2 0.3-0.2 0.3-0.1 0.6-0.1 0.6 0 1.1 0.2 0.5 0.1 1 0.3 0.1 0 0.2 0 0 0 0-0.1v-1.6q0-0.1 0-0.2 0 0-0.1 0-0.4-0.2-0.9-0.3-0.6-0.1-1.2-0.1-1.1 0-1.8 0.4c-0.4 0.2-0.8 0.5-1 0.9q-0.3 0.6-0.3 1.2-0.1 0.5 0.2 1 0.3 0.5 0.7 0.9 0.7 0.4 1.5 0.7 0.7 0.3 0.9 0.5 0.3 0.2 0.3 0.4c0 0.2-0.1 0.3-0.3 0.4q-0.3 0.1-0.8 0.1-0.6 0-1.2-0.1-0.7-0.2-1.2-0.5-0.1 0-0.1 0-0.1 0-0.1 0.1v1.7q0 0.1 0.1 0.2 0.5 0.2 1.1 0.3 0.6 0.2 1.3 0.1 1.1 0 1.8-0.3c0.5-0.2 0.9-0.5 1.1-0.9 0.3-0.4 0.4-0.8 0.4-1.3z"/></svg>