<svg version="1.2" xmlns="http://www.w3.org/2000/svg" viewBox="0 0 24 24" width="24" height="24"><style>.a{fill:#5691bc}</style><path fill-rule="evenodd" class="a" d="m11.1 0h4v18.2c-2 0.3-3.5 0.5-5.1 0.5-4.8 0-7.3-2.2-7.3-6.3 0-4 2.6-6.6 6.7-6.6 0.7 0 1.2 0 1.7 0.2zm0 9.1q-0.1 0-0.3-0.1-0.1 0-0.3 0-0.2-0.1-0.3-0.1-0.2 0-0.4 0c-2 0-3.1 1.2-3.1 3.4 0 2.1 1.1 3.2 3.1 3.2 0.4 0 0.8 0 1.3-0.1 0 0 0-6.3 0-6.3zm10.2-3.1v9.1c0 3.2-0.2 4.7-0.9 6-0.6 1.2-1.5 2-3.2 2.9l-3.7-1.7c1.8-0.9 2.6-1.6 3.2-2.7 0.5-1.1 0.7-2.4 0.7-5.8v-7.8c0 0 3.9 0 3.9 0zm-3.9-6h3.9v4h-3.9z"/></svg>