<svg version="1.2" xmlns="http://www.w3.org/2000/svg" viewBox="0 0 24 24" width="24" height="24"><style>.a{fill:#5691bc}</style><path fill-rule="evenodd" class="a" d="m22.3 15.3q-0.3-0.3-0.3-0.7 0-0.4 0.3-0.7 0.3-0.3 0.7-0.3 0.4 0 0.7 0.3 0.3 0.3 0.3 0.7 0 0.4-0.3 0.7-0.3 0.3-0.7 0.3-0.4 0-0.7-0.3zm-0.3-3.4h-0.8c-0.6 0-0.9 0.4-0.9 1.1v2.4h-1.6v-3.5h-0.7c-0.5 0-0.8 0.4-0.8 1.1v2.4h-1.6v-4.8h1.6v0.7c0.2-0.6 0.6-0.7 1.1-0.7h2v0.7c0.3-0.6 0.6-0.7 1.2-0.7h0.5zm-6.8 1.5h-3.3c0.1 0.5 0.4 0.8 1 0.8 0.4 0 0.7-0.1 0.8-0.5l1.4 0.4c-0.3 0.9-1.2 1.4-2.2 1.4-1.8 0-2.6-1.4-2.6-2.5 0-1.2 0.7-2.5 2.5-2.5 1.8 0 2.4 1.4 2.4 2.4q0 0.3 0 0.5zm-1.5-1c-0.1-0.4-0.4-0.8-0.9-0.8-0.5 0-0.8 0.2-0.9 0.8zm-8-1.9h1.6l0.9 2.9 0.9-2.9h1.6l-1.8 4.9h-1.4c0 0-1.8-4.9-1.8-4.9zm-4.8 1.4h-0.9v-1.3h0.9v-0.4c0-1.1 0.8-1.8 2-1.8h1.1v1.3h-0.9c-0.4 0-0.6 0.2-0.6 0.5v0.3h3.1v4.9h-1.6v-3.5h-1.5v3.5h-1.6c0 0 0-3.5 0-3.5z"/></svg>