<svg version="1.2" xmlns="http://www.w3.org/2000/svg" viewBox="0 0 24 24" width="24" height="24"><style>.a{fill:#5691bc}</style><path fill-rule="evenodd" class="a" d="m7.2 20.4c-0.9-0.8-1.9-1.4-2.6-2.4-1.4-1.7-2.5-3.7-3.2-5.8-0.5-1.4-0.6-2.8-1.2-4.1-0.6-1 0.1-2 1.2-2.3 0.4-0.1 1.2-0.5 0.3-0.2-0.9 0.6-1-0.6-0.1-0.7 0.6 0 0.8-0.5 0.6-1-0.6-0.4 1.6-0.9 0.5-1.5-1.2-1.3 1.6-1.6 0.9-0.1-0.1 1.1 2-0.2 1.5 1.1 0.5 0.6 1.9 0.1 1.9 1 0.7 0 1 0.6 1.7 0.7 0.7 0.3 2 0.6 2.2 1.4-0.7 0.6-2.3-1.2-2.4 0.4 0.2 2.3 0.2 4.7 1 6.9 0.4 1.3 1.4 2.4 2.2 3.4 0.9 1 2 1.7 3.2 2.3 1 0.5 2.1 0.8 3.2 1 0.4-0.3 1.2-1.6 1.9-1.1 0.1 0.6-1.4 1.3 0 1.2 0.7-0.2 1.3 0.6 1.9-0.1 0.6 0.7 2.5-0.5 2 1-0.5 0.3-1.4 0.1-1.9 0.6-1-0.5-1.7 0.4-2.7 0.3q-0.5 0.1-0.9 0.1-0.4 0.1-0.9 0.1-0.4 0.1-0.8 0.1-0.5 0-0.9 0c-1.9-0.1-3.9-0.2-5.7-0.9-1-0.3-2-0.9-2.9-1.4zm1.6 0.7c1 0.4 2 0.8 3.1 1 1.7 0.2 3.5 0.6 5.2 0.3-0.7-0.4-1.6 0.1-2.4-0.3-0.9 0.2-1.9 0-2.9-0.2-1.1-0.5-2.2-0.8-3.3-1.4-1.2-0.5 0.7 0.6 1 0.7 0.8 0.4-0.8-0.3-1.1-0.5-0.6-0.3-0.7-0.3 0 0.1q0.2 0.1 0.4 0.3zm-1.9-1.4c1 0.4 0-0.7-0.5-0.6-0.2-0.3-0.7-0.6-0.3-0.7-0.7 0.2-0.8-1-1.1-0.8-0.7-0.2-0.3-1.1-1.2-1.6-0.1-0.5-0.9-1-1.1-1.8-0.1-0.4-0.9-1.6-0.4-0.5 0.4 1.1 1.1 2 1.7 2.9 0.5 0.9 1 1.8 1.9 2.3 0.3 0.3 0.6 0.7 1 0.8zm5 0.6c0.8-0.4 0.5 1.1 1.3 0.1 0.8-0.5-0.7 0.8 0.3 0.1 0.7-0.4 1.7 0.3 2.4 0.5 0.5 0 0.9 0.4 1.4 0.1 0.9-0.2-1.8-0.3-1.1-0.8-0.8 0.3-1.5-0.3-1.9-0.8-0.9-0.2-2-0.7-2.5-1.6-0.2-0.3 0.3 0.1-0.2-0.4-0.5-0.5-0.8-1.1-1.2-1.7-0.5-0.3-0.5-1-0.6 0 0-0.6-0.5-1-0.7-0.9 0-0.5 0.6-0.3 0.2-0.7-0.1-0.6-0.4-1.2-0.5-1.9-0.1-0.3 0-1-0.4-0.2-0.2 0.7-0.1-1 0.2-0.4 0.3-0.6-0.1-0.5-0.2-0.5 0.3-0.4 0.2-1.1 0-0.9 0.1-0.5 0.2-1.9-0.2-1.6 0.2-0.6 0.4-2.5-0.5-1.8-0.4 0-1.1 0.2-1.4 0.3 1 0.6-0.1 0.2-0.5 0.1 0 0.6-0.4 0.3-0.9 0.3 0.8 0.1-0.4 0.8-0.9 0.6-0.6 0.3 0.5 1 0 1.2 0.1 0.3-0.9-0.1-0.8 0.6-0.6-0.2-0.1 0.9 0.2 0.5 1 0.3 0.7 0.9 0.7 1.5-0.1 0.3-0.8-0.8-0.1-0.8-0.5-0.8-0.6-0.3-1 0.1-0.1 0.1 1.1 0.6 0.3 0.8 0.7 0.1 0.7 0.7 0.8 1.1 0.4 0.4 0.3-0.5 0.8 0-0.3-0.4-1.6-1.2-0.5-1 0-0.4-0.2-0.8 0.1-0.8 0.3-0.5-0.3 1.4 0.4 0.7 0.2-0.1 0.2-0.6 0.6 0.1 0.5 0.5 0.1 0.8-0.6 0.4 0.2 0.4 1 0.5 0.8 1.2 0.2 0.6 0.4 0.4 0.6 0.4 0.2 0.5 0.3 0.1 0.3-0.2 0.7 0.2 0.5 0.6 0.8 0.9 0.5 0.2-0.8-1.5 0.1-0.5 0.8 0.7 0.4 1.1-0.3 1 0.4 0.2 0.6 0.7 1.1 0.7 0.6 0.3 1 1.3 0 0.9-0.3-0.3-1.6-0.7-0.6-0.1 1 0.4 1.7 0.7 2.6 1.2 0.6 0.5 0.9 1 1.2 1.1-0.6 0.2-1.7-0.2-0.9-0.4-0.5-0.1-1-0.3-0.5 0.3 0.4 0.4 1.4 0.3 1.6 0.4-0.2 0.3-0.4 0.3 0 0.4-0.5 0.2 0.2 0.3 0.2 0.4zm-3.5-9.1q0 0 0 0.1 0-0.1 0-0.1zm-1.2 4.2q-0.1 0-0.2 0 0.1 0 0.2 0zm4 6.1c0.4 0.3 2.3 0.6 1.1 0.1-0.2 0.1-2.3-0.6-1.1-0.1zm-4.4-3.5c0.4 0.3 1.8 0 0.7-0.3-0.6-0.2-1.7-0.4-0.9 0.2zm2.2 1.2c1.2 0.3-0.9-0.7-0.3-0.1l0.2 0.1c0 0 0.1 0 0.1 0zm-2.6-2.5c0.3 0.3 1.3 0.7 0.5 0.1 0.2-0.3-0.5-0.5-0.3-0.7-0.6-0.4-0.5-0.4 0-0.3-0.8-0.4 0.1-0.4 0-0.5-0.3-0.1-1.5-0.6-0.8 0-0.7-0.4-0.1 0.1-0.4 0.1-0.7-0.2 0.7 0.5-0.1 0.3 0.4 0.4 1.2 0.9 0.2 0.4-0.1 0.2 0.7 0.5 0.9 0.6zm2.6 1.9c0.9 0.1-1-0.6-0.1-0.1zm1.8-1c-0.3-0.3-0.3-0.9 0-0.4 0.1 0.1 0.5 1 0 0.4zm-6.3-3.4c0.5 0.1 2.1 1.3 1.1 0.1-0.4-0.2-0.1-1.3-0.6-1.1 0.3 0.5 0.2 0.7-0.4 0.4-0.9-0.4-0.5 0.2-0.3 0.4-0.3 0 0.3 0.2 0.2 0.2zm4.4 0.3c-0.3-0.8 0.3-0.5 0.1 0.1zm-3.2-2.2c-0.2-0.2-0.4-1-0.4-1.2 0.1 0.4 0.8 1.6 0.4 0.5-0.5-0.9 0.6 0.3 0.7 0.5 0 0.3-0.3 0-0.1 0.5-0.4-0.6-0.2 0.4-0.6-0.3zm-1.7-1.3c-0.3-0.4-0.6-0.7 0-0.3 0.3 0-0.5-0.7 0.1-0.2 0.7 0.1 0.3 1.1-0.1 0.5zm0.3-0.6c-1.1-1 1.3 0.5 0.1 0.2zm3.1 1.8c-0.4-0.3-0.1-2 0.1-0.8 0.4-0.2 0 0.6 0.3 0.6-0.1 0.4-0.2 0.6-0.4 0.2zm-2.9-2.1c-0.7-1 2.1 0.9 0.5 0.2-0.2 0-0.4-0.1-0.5-0.2zm0.2-0.4c0.4-0.1 1.7 0.7 0.5 0.2-0.2-0.1-0.4-0.1-0.5-0.2zm3.5 1.8c0.1-0.9 0.3-0.5 0 0.1zm-3.2-2.1c0.1-0.2-0.5-1.1 0.1-0.3 0.2 0.2 0.6 0.3 0.2 0.4 0.6 0.5-0.1 0.1-0.3-0.1zm2.7-0.4c-0.3-0.4 0.2-1.7 0.3-0.9-0.2 0.6-0.1 1 0.1 0.1 0.3-0.6-0.1 1.3-0.4 0.8zm-6.9-0.7c-0.1-0.5-0.1-1.4 0.8-1.1-1.2 0.2 0.9 1.5 0.6 0.5 0.5 0 1-0.3 0.7 0.2 1-0.1 1.7-1 2.6-0.9 0.8-0.1 1.6-0.1 2.4-0.4 0.6-0.1 1.3-0.8 0.9-1.2-0.9-0.1-1.8 0-2.8 0.2-1.1 0.2-2.1 0.7-3.2 0.9-1.1 0.1 0.2 0.4-0.1 0.4-0.6 0.2 0.7 0.4-0.1 0.6-0.4-0.1-0.9-0.3-0.7-0.8-1.1 0.2-2 0.6-1.1 1.6 0 0 0 0 0 0zm7.8 9.9c0.6 0.2 0.6-0.1 0-0.1-0.3-0.3-1.2-0.6-0.4-0.1 0.1 0.2 0.2 0.2 0.4 0.2zm5.5 3.1c0.3-0.3 0 0.5 0.5-0.1 0-0.4 0-0.6-0.6-0.1-0.1 0.1-0.2 0.4 0.1 0.2zm-5.4-3.4c0.4 0.3 1.7 0.2 0.5 0-0.2-0.3-1.2-0.2-0.5 0zm-5.9-4c-0.5-0.8-0.3-1.1-0.9-1.7 0-0.5-0.8-1.6-0.4-0.4 0.5 0.6 0.6 1.6 1.3 2.1zm12.7 7.6c0.5-0.3-0.1-0.3-0.1 0zm0.9 0.3c0.7-0.5-0.4-0.1-0.2 0.1zm-14.2-9.4c0.1-0.4-0.8-2.1-0.4-0.9 0.1 0.3 0.1 0.8 0.4 0.9zm16.2 8.9c0.5-0.1 1.7 0.3 1.9-0.1-0.6 0-2.2-0.5-2.2 0.1h0.1zm-15.9-11.1c0.5-0.2-1-0.5-0.1-0.1zm0.8-3.1c0.3-0.8 1.3 0.8 0.4 0.2-0.1-0.1-0.2-0.2-0.4-0.2zm0.5-0.4c0.1-0.4 1 0.2 0.2 0.2zm0.8-0.4c0.3-0.4 2.1-0.3 0.8 0-0.3-0.3-0.6 0.1-0.8 0zm2.8-0.3c0.3-0.6 1-0.3 0.2-0.2 0 0.1-0.1 0.4-0.2 0.2zm15.1 15.3c0.5 0 1.7-0.2 0.4-0.2-0.1 0.1-1.1 0.1-0.4 0.2zm-19.2-12.2c0.4 0 0.7-0.5-0.1-0.5-1.3-0.1 1.1 0.5-0.2 0.3-0.2 0.1 0.2 0.2 0.3 0.2zm-0.7-3.6c0.8-0.2 1.8-0.5 2.2 0-0.2-0.4 0-0.7 0.3-0.1 0.5 0.6 0.7-0.1 0.6-0.4 0.3 0.4 0.6 0.5 0.1-0.1 0.6-0.7-1.2 0.1-1.6 0.1-0.2 0.1-2.1 0.5-1.6 0.5zm2.2 0q0 0.1 0.1 0.2 0-0.1-0.1-0.2zm0.9-0.5q-0.1 0-0.1-0.1 0 0 0.1 0.1zm-2.6-0.4c0.5-0.3 1.6 0.2 0.9-0.3-0.1-0.1-1.6 0.4-0.9 0.3zm1.7 0.1c0.5 0-0.3-0.7 0.4-0.4-0.1-0.3-0.8-0.4-1.1-0.5-0.2 0.3 0.4 0.9 0.7 0.9zm-0.7-1.3c0.8-0.2-0.2-0.4-0.2-0.1zm-1.3-1c-0.6-0.8 1.2 0.2 0.6-0.7-0.6-0.4-1.1 0.5-0.6 0.7zm7.9 4.3c0.2-0.5-1.2-0.7-0.2-0.2 0.1 0 0 0.2 0.1 0.2z"/></svg>