<svg version="1.2" xmlns="http://www.w3.org/2000/svg" viewBox="0 0 24 24" width="24" height="24"><style>.a{fill:#5691bc}</style><path class="a" d="m23.5 13.1l-10.4 10.4c-0.6 0.7-1.6 0.7-2.2 0l-10.4-10.4c-0.6-0.6-0.6-1.6 0-2.2l7.1-7.2 2.7 2.7c-0.2 0.7-0.1 1.5 0.4 2q0.3 0.3 0.6 0.4v6.6q-0.3 0.2-0.6 0.4c-0.7 0.7-0.7 1.9 0 2.6 0.8 0.7 1.9 0.7 2.6 0 0.8-0.7 0.8-1.9 0-2.6q-0.2-0.2-0.4-0.3v-6.5l2.4 2.4c-0.2 0.7-0.1 1.5 0.5 2 0.7 0.7 1.8 0.7 2.6 0 0.7-0.7 0.7-1.9 0-2.6-0.6-0.5-1.3-0.6-1.9-0.4l-2.7-2.7c0.2-0.6 0.1-1.4-0.4-1.9-0.6-0.5-1.3-0.6-1.9-0.4l-2.8-2.8 2.2-2.1c0.6-0.7 1.6-0.7 2.2 0l10.4 10.4c0.7 0.6 0.7 1.6 0 2.2z"/></svg>