<svg version="1.2" xmlns="http://www.w3.org/2000/svg" viewBox="0 0 24 24" width="24" height="24"><style>.a{fill:#5691bc}</style><path fill-rule="evenodd" class="a" d="m22.5 7.5v9c0 1.1-0.6 2.1-1.5 2.6l-7.5 4.5q-0.7 0.4-1.5 0.4-0.8 0-1.5-0.4l-7.5-4.5c-0.9-0.5-1.5-1.5-1.5-2.6v-9c0-1.1 0.6-2.1 1.5-2.6l7.5-4.5q0.7-0.4 1.5-0.4 0.8 0 1.5 0.4l7.5 4.5c0.9 0.5 1.5 1.5 1.5 2.6zm-0.6-0.4c-0.1-0.7-0.5-1.4-1.1-1.7l-7.6-4.5q-0.6-0.4-1.2-0.4-0.6 0-1.2 0.4l-7.6 4.5c-0.7 0.4-1.2 1.2-1.2 2.1v9c0 0.9 0.5 1.7 1.2 2.1l7.6 4.5q0.6 0.4 1.2 0.4 0.2 0 0.4-0.1c-0.4-0.1-0.7-0.5-0.7-1.2v-8.8c0-1.1 0.7-1.7 1.6-2.2l7.2-4.4c0.6-0.4 1.2-0.2 1.4 0.3zm-2.8 10.3q0-0.1 0 0l-1.9 1.1q-0.1 0-0.1 0.1v0.5q0 0.1 0.1 0.1l1.9-1.2q0.1 0 0-0.1zm-3-0.4c0-0.7-0.3-1-1-1-0.5 0-0.7-0.1-0.7-0.4 0-0.3 0.1-0.6 0.5-0.8 0.4-0.2 0.6-0.1 0.7-0.1q0.1 0 0.1 0 0 0 0-0.1 0.1 0 0.1-0.1l0.1-0.5q0.1-0.2 0-0.2-0.3-0.1-0.7 0.1l-0.1-0.7q0-0.1-0.1 0l-0.3 0.2c-0.1 0-0.1 0.1-0.1 0.2v0.6c-0.6 0.5-0.9 1.2-0.9 1.8 0 0.8 0.5 1 1 1 0.5 0 0.7 0.1 0.7 0.4 0 0.4-0.3 0.7-0.6 0.9-0.3 0.2-0.6 0.2-0.8 0.1q-0.1 0-0.1 0 0 0 0 0.1-0.1 0-0.1 0.1l-0.1 0.6q-0.1 0.1 0 0.1c0.2 0.1 0.5 0.1 0.9-0.1v0.7q0 0.1 0.1 0l0.4-0.2c0 0 0.1-0.1 0.1-0.2v-0.6c0.5-0.5 0.9-1.2 0.9-1.9z"/></svg>