<svg version="1.2" xmlns="http://www.w3.org/2000/svg" viewBox="0 0 24 24" width="24" height="24"><style>.a{fill:#5691bc}</style><path fill-rule="evenodd" class="a" d="m0 0h24v24h-24zm22 18.3c-0.1-1.1-0.9-2-3-2.9-0.7-0.3-1.5-0.6-1.8-1.1-0.1-0.4-0.1-0.5 0-0.7 0.1-0.7 0.9-0.9 1.5-0.7 0.4 0.1 0.8 0.4 1 0.9 1-0.7 1-0.7 1.7-1.1-0.2-0.4-0.4-0.6-0.6-0.8-0.6-0.7-1.4-1.1-2.8-1h-0.7c-0.7 0.2-1.3 0.6-1.7 1.1-1.1 1.2-0.8 3.5 0.6 4.4 1.3 1 3.3 1.3 3.6 2.2 0.2 1.2-0.9 1.6-2 1.4-0.8-0.1-1.2-0.5-1.7-1.3l-1.9 1.1c0.2 0.4 0.5 0.6 0.8 1.1 1.8 1.7 6.1 1.6 6.9-1 0-0.1 0.3-0.7 0.1-1.7zm-9-7.2h-2.2q0 2.9-0.1 5.8c0 1.2 0.1 2.3-0.1 2.7-0.3 0.7-1.2 0.6-1.6 0.5-0.4-0.2-0.6-0.5-0.8-0.9 0-0.1-0.1-0.2-0.1-0.2l-1.8 1.1c0.3 0.7 0.7 1.2 1.3 1.6 0.8 0.5 2 0.6 3.2 0.4 0.8-0.3 1.5-0.7 1.8-1.5 0.5-0.9 0.4-2 0.4-3.3q0-3.1 0-6.2z"/></svg>