<svg version="1.2" xmlns="http://www.w3.org/2000/svg" viewBox="0 0 24 24" width="24" height="24"><style>.a{fill:#5691bc}</style><path fill-rule="evenodd" class="a" d="m16 6.1c0 1.4 0.8 2.4 1.6 3.4 0.7 0.9 1.6 2.1 2.2 3.5 0.4 1.1 0.6 2.4 0.2 3.7q0 0 0 0 0 0 0.1 0 0 0 0 0 0 0 0 0c0.1 0.1 0.2 0.1 0.2 0.2 0.3 0.2 0.4 0.6 0.5 1 0.1 0.4 0.2 0.8 0.4 1v0.1c0.5 0.5 0.7 0.9 0.7 1.3 0 0.4-0.3 0.7-0.7 0.9-0.7 0.4-1.7 0.7-2.3 1.5-0.7 0.8-1.5 1.2-2.3 1.3-0.8 0.1-1.5-0.3-1.9-1.1 0-0.1-0.1-0.2-0.1-0.3-1 0.1-1.9-0.3-2.6-0.2-1 0.1-1.7 0.3-2.2 0.3-0.3 0.5-0.7 0.8-1.2 1-0.8 0.2-1.7 0-2.7-0.5-0.8-0.5-1.9-0.4-2.7-0.6-0.4-0.1-0.8-0.3-1-0.6-0.2-0.3-0.1-0.8 0.1-1.5 0.1-0.2 0-0.6 0-1 0-0.1-0.1-0.3-0.1-0.5q0-0.3 0.2-0.6c0.2-0.4 0.5-0.5 0.8-0.7 0.3-0.1 0.6-0.2 0.8-0.4 0.2-0.2 0.4-0.5 0.7-0.8q0 0 0-0.1 0 0 0 0 0.1 0 0.1 0 0 0 0-0.1c-0.1-0.8 0-1.6 0.3-2.4 0.6-1.8 1.8-3.5 2.7-4.6 0.8-1 1-1.9 1.1-3 0-1.5-1.1-5.9 3.1-6.3q0.3 0 0.5 0c3.8 0 3.6 4 3.5 6.1zm-3.1-2.7q-0.1 0-0.2 0.1-0.1 0-0.1 0-0.1 0.1-0.2 0.1-0.3 0.2-0.4 0.5 0 0.1-0.1 0.2 0 0.1 0 0.2 0 0.1 0 0.2 0 0.1 0 0.2 0 0.1 0 0.1 0 0 0 0 0 0.1 0 0.1 0 0 0 0c0.1 0.1 0.4 0.2 0.6 0.2q0-0.1 0-0.2v-0.1q0 0 0-0.1 0 0 0-0.1 0 0 0-0.1 0 0 0.1-0.1 0 0 0-0.1 0 0 0 0 0.1-0.1 0.1-0.1 0-0.1 0.1-0.1 0.1-0.1 0.2-0.1c0.1 0 0.2 0 0.3 0.1 0.1 0.1 0.1 0.2 0.2 0.3q0 0.1 0 0.1 0 0.1 0 0.1 0 0.1 0 0.1 0 0.1 0 0.1v0.1q0 0.2 0 0.4c-0.1 0-0.2 0.1-0.2 0.2q0 0 0 0 0.1 0 0.1 0 0 0 0 0 0.1 0 0.1 0c0.1 0.1 0.2 0.1 0.3 0.2q0 0 0 0 0 0 0 0 0 0 0 0 0.1 0 0.1 0 0 0 0-0.1 0.1 0 0.1-0.1 0 0 0 0 0.1-0.1 0.1-0.1 0-0.1 0-0.2 0.1-0.1 0.1-0.2 0-0.1 0-0.2 0 0 0-0.1 0 0 0 0 0 0 0 0 0 0 0 0 0 0 0 0v-0.1q0 0 0 0.1c0-0.3 0-0.5-0.1-0.8q-0.2-0.3-0.5-0.5-0.2-0.2-0.6-0.2 0 0-0.1 0zm-3.2 0.3q-0.1 0-0.1 0.1-0.1 0-0.1 0.1-0.1 0.1-0.1 0.2 0 0 0 0.1-0.1 0.1-0.1 0.2 0 0 0 0.1 0 0.1 0 0.2 0 0.1 0 0.2 0 0.1 0 0.1 0 0.1 0 0.2 0.1 0.1 0.1 0.2 0 0.1 0 0.1 0.1 0.1 0.1 0.1 0 0.1 0.1 0.1 0 0.1 0 0.1 0.1 0.1 0.1 0.1 0 0 0.1 0 0 0 0 0 0 0 0 0 0 0 0.1 0c0-0.1 0.1-0.1 0.1-0.2q0 0 0 0c-0.1-0.1-0.1-0.1-0.2-0.3 0-0.1 0-0.2-0.1-0.3q0-0.1 0-0.1 0 0 0-0.1 0 0 0.1-0.1 0 0 0 0 0-0.1 0-0.1 0 0 0-0.1 0 0 0 0 0.1-0.1 0.1-0.1 0.1-0.1 0.2-0.1 0 0 0 0 0.1 0 0.1 0 0 0 0 0 0.1 0 0.1 0 0 0.1 0 0.1 0.1 0 0.1 0 0 0.1 0 0.1 0 0.1 0 0.1c0.1 0.1 0.1 0.2 0.1 0.3q0 0.2 0 0.3 0.2-0.1 0.4-0.2 0.1 0 0.1 0v-0.1c0-0.1 0-0.1 0-0.3 0-0.2-0.1-0.4-0.2-0.6q-0.1-0.3-0.3-0.5-0.2-0.1-0.4-0.1-0.3 0-0.4 0.2zm1.3 1.5c-0.4 0.2-0.7 0.4-0.9 0.6 0 0.1 0 0.1-0.1 0.2-0.1 0-0.3 0.2-0.5 0.3q-0.3 0.2-0.2 0.6c0.1 0.2 0.3 0.5 0.7 0.7 0.2 0.2 0.4 0.4 0.6 0.5q0 0 0.1 0 0 0.1 0 0.1 0.1 0 0.1 0 0.1 0.1 0.1 0.1 0.1 0 0.1 0 0.1 0 0.1 0 0.1 0 0.1 0.1 0.1 0 0.2 0c0.4 0 0.7-0.2 1-0.3 0.2-0.1 0.5-0.3 0.7-0.5 0.6-0.2 1-0.5 1.1-0.8q0-0.1 0-0.1 0.1-0.1 0-0.2 0 0 0-0.1 0 0 0-0.1v0.1q-0.1-0.2-0.5-0.4c-0.5-0.2-0.8-0.2-1-0.4-0.5-0.4-0.9-0.4-1.3-0.4q-0.2 0-0.4 0zm2.2 2.8c-0.2 0.1-0.5 0.3-0.7 0.4-0.3 0.1-0.6 0.3-1 0.3q-0.1 0-0.2 0c-0.4 0-0.6-0.2-0.8-0.4-0.2-0.1-0.4-0.3-0.6-0.4-0.1-0.1-0.3-0.2-0.3-0.2-0.1 1.7-1.3 4-1.8 5.2q-0.2 0.4-0.3 0.7-0.1 0.4-0.2 0.7-0.1 0.4-0.1 0.8-0.1 0.3-0.1 0.7c-1-1.3-0.3-3.1 0.1-3.8 0.5-0.9 0.5-1.1 0.4-1-0.4 0.6-1 1.7-1.2 2.8-0.2 0.5-0.2 1.1 0 1.6 0.1 0.5 0.5 1 1.1 1.4 0.9 0.5 1.5 1 1.8 1.5 0.4 0.5 0.5 0.9 0.4 1.2q-0.1 0-0.1 0.1 0 0-0.1 0.1 0 0-0.1 0.1 0 0-0.1 0-0.1 0.1-0.4 0.1 0 0 0.1 0.1 0 0 0 0 0.1 0.1 0.1 0.1 0 0.1 0.1 0.1 0 0.1 0.1 0.1 0 0.1 0.1 0.2 0 0 0.1 0.1 0 0.1 0.1 0.1c1.7 1.2 3.8 0.8 5.3-0.3 0.2-0.5 0.3-1 0.3-1.3 0.1-0.8 0.1-1.4 0.2-1.9 0.2-0.5 0.4-0.9 0.8-1.2q0.1 0 0.2-0.1c0 0 0-0.1 0.1-0.1 0.1-0.8 0.8-0.9 1.7-0.5 0.9 0.4 1.2 0.8 1.1 1.3q0.1 0 0.2 0c0.2-0.6-0.2-1-1.2-1.5q-0.2-0.1-0.3-0.1c0.2-0.6 0.2-1.1 0-1.7-0.3-1.2-1-2.2-1.6-2.7-0.1 0-0.1 0.1 0.1 0.3 0.5 0.5 1.7 2.3 1.1 4q-0.3-0.1-0.5-0.1c-0.3-1.4-0.8-2.5-1.1-3-0.6-1-1.4-3.1-1.8-4.5-0.2 0.3-0.5 0.6-1 0.7zm3.2 8.3c-0.4 0.2-0.5 0.5-0.7 1-0.1 0.5-0.1 1.1-0.2 1.8 0 0.5-0.2 1.2-0.4 1.9-0.2 0.7-0.3 1.3-0.1 1.7 0.4 0.7 0.9 0.9 1.6 0.9 0.7-0.1 1.4-0.5 2-1.2 0.8-0.9 1.9-1.2 2.5-1.6 0.3-0.2 0.5-0.3 0.5-0.6 0-0.2-0.2-0.6-0.6-1.1-0.3-0.3-0.4-0.7-0.4-1.1-0.1-0.3-0.2-0.7-0.4-0.9-0.3-0.2-0.6-0.2-0.9-0.2h-0.2c-0.4 0.4-1.2 0.9-1.8 0.7-0.5-0.1-0.8-0.7-0.9-1.3 0 0 0 0 0 0zm5.2 3.9q0 0 0 0zm0 0zm-16.6-3.6c-0.3 0.3-0.5 0.6-0.7 0.9-0.3 0.3-0.6 0.3-0.9 0.5-0.3 0.1-0.6 0.2-0.7 0.5-0.1 0.2-0.1 0.5-0.1 0.9 0.1 0.4 0.2 0.8 0.1 1.1v0.1c-0.3 0.6-0.3 1-0.2 1.2q0.2 0.3 0.8 0.4c0.7 0.1 1.8 0.1 2.8 0.6 0.9 0.5 1.8 0.6 2.4 0.5 0.7-0.2 1.1-0.6 1.1-1.3 0.1-0.5-0.3-1-0.7-1.6-0.4-0.6-0.9-1.1-1.2-1.7l-0.9-1.6c-0.3-0.4-0.6-0.7-1-0.8q-0.1 0-0.2 0c-0.3 0-0.5 0.1-0.6 0.3zm7.8-9.4c-0.5 0.2-1 0.6-1.5 0.6-0.6 0-1-0.3-1.3-0.5-0.1-0.1-0.3-0.3-0.4-0.3-0.1-0.2-0.1-0.4 0-0.4 0.1 0.1 0.1 0.2 0.2 0.2 0.1 0.1 0.2 0.2 0.3 0.4 0.3 0.2 0.7 0.4 1.2 0.4 0.5 0 1-0.2 1.4-0.4 0.2-0.2 0.4-0.4 0.6-0.5 0.2-0.1 0.2-0.3 0.3-0.3 0.1 0.1 0 0.2-0.1 0.4q-0.1 0-0.2 0.1-0.1 0.1-0.2 0.1-0.1 0.1-0.2 0.1 0 0.1-0.1 0.1zm-1.1-1.5v-0.1q0 0 0 0c0.1-0.1 0.2 0 0.3 0 0 0 0.1 0.1 0.1 0.1 0 0.1-0.1 0.1-0.1 0.1-0.1 0-0.1-0.1-0.1-0.1-0.1 0-0.2 0-0.2 0zm-0.6 0c0 0-0.1 0-0.1 0-0.1 0-0.1 0.1-0.2 0.1 0 0-0.1 0-0.1-0.1 0 0 0.1-0.1 0.1-0.1 0.1 0 0.2-0.1 0.3 0q0 0 0 0v0.1q0 0 0 0z"/></svg>