<svg version="1.2" xmlns="http://www.w3.org/2000/svg" viewBox="0 0 24 24" width="24" height="24"><style>.a{fill:#5691bc}</style><path fill-rule="evenodd" class="a" d="m22.8 10.9q-0.4-0.2-0.7-0.4c-0.1-0.1-0.3-0.1-0.5-0.2-0.1-0.1-0.6-0.2-0.7-0.3-0.2-0.3-0.3-0.6-0.4-0.9-0.2-0.3-0.3-0.6-0.5-1-0.1-0.1-0.1-0.3-0.2-0.4q-0.1-0.4-0.4-0.7-0.2-0.3-0.5-0.6-0.2-0.3-0.5-0.6-0.3-0.2-0.7-0.4-0.4-0.3-0.9-0.5c-0.2 0-0.5 0-0.7 0h-0.1c-0.1-0.1-0.2-0.2-0.3-0.3-0.2-0.1-0.4-0.2-0.7-0.3-0.1 0-0.3-0.1-0.4-0.1q-0.1 0-0.1 0.1c-0.1 0.1 0 0.2 0 0.3 0.1 0.2 0.3 0.3 0.4 0.5 0.1 0.2 0.2 0.4 0.3 0.5 0.2 0.4 0.3 0.8 0.4 1.2q0.1 0 0.1 0.1 0 0.1 0 0.1 0.1 0.1 0.1 0.1 0 0.1 0.1 0.1c0.1 0.1 0.2 0.2 0.2 0.3 0.1 0.2-0.1 0.6-0.1 0.7-0.2 0.6-0.2 1.3 0 1.8 0.1 0.2 0.2 0.4 0.4 0.5 0 0 0 0 0 0 0.1-0.4 0.1-0.8 0.2-1 0.1-0.2 0.2-0.4 0.3-0.5 0.1 0 0.1 0.2 0.1 0.2q0.2 0.4 0.3 0.7 0.1 0.1 0.2 0.3 0.1 0.2 0.2 0.3 0.1 0.2 0.2 0.3 0.1 0.2 0.2 0.3 0 0.1 0 0.1 0.1 0.1 0.1 0.1 0.1 0.1 0.1 0.1 0.1 0.1 0.1 0.1 0.1 0.1 0.2 0.1v0.1c-0.2-0.1-0.3-0.3-0.5-0.4-0.3-0.3-0.7-0.6-0.9-0.9q-0.1-0.3-0.2-0.6c-0.1 0-0.1 0.1-0.1 0.2-0.1 0.3 0 0.7-0.3 0.8-0.4 0.2-0.6-0.2-0.7-0.4-0.4-0.5-0.5-1.5-0.2-2.2 0-0.2 0-0.4 0.1-0.5 0-0.2-0.1-0.2-0.1-0.3q-0.2-0.2-0.3-0.4c-0.1-0.2-0.2-0.6-0.3-0.9-0.1-0.1-0.1-0.2-0.1-0.3-0.1-0.2-0.2-0.4-0.4-0.5-0.1-0.2-0.6-0.7-0.4-1.1 0.3-0.7 1.3-0.2 1.7 0.1 0.1 0 0.2 0.2 0.3 0.2q0.2 0 0.5 0c0.3 0.1 0.6 0.2 0.8 0.3 1.2 0.7 1.9 1.4 2.6 2.5 0.2 0.2 0.2 0.5 0.4 0.8q0 0.1 0.1 0.3 0 0.1 0.1 0.3 0.1 0.1 0.2 0.2 0 0.2 0.1 0.3c0.1 0.2 0.2 0.4 0.3 0.5 0 0.1 0.2 0.1 0.2 0.2 0.3 0.1 0.5 0.2 0.7 0.3q0.2 0.1 0.3 0.2 0.2 0.1 0.3 0.2 0.1 0.1 0.3 0.2 0.1 0.1 0.2 0.2c0.2 0.1 0.2 0.3 0.4 0.4v0.1q-0.2 0-0.4 0.1c-0.2 0-0.4 0-0.6 0.1-0.2 0-0.3 0.1-0.5 0.1 0.1 0.2 0.6 0.5 0.8 0.6q0.1 0.1 0.2 0.1 0.1 0.1 0.2 0.2 0.1 0.1 0.1 0.2 0.1 0.1 0.2 0.2 0.1 0.1 0.2 0.2c0 0 0.1 0.1 0.1 0.2-0.1 0-0.1-0.1-0.2-0.2q-0.2-0.1-0.5-0.3c-0.2-0.1-0.5-0.2-0.8-0.4q-0.2-0.1-0.4-0.3c-0.1-0.1-0.3-0.3-0.3-0.4-0.1-0.1-0.1-0.2-0.1-0.2 0-0.2 0.1-0.2 0.2-0.2q0.5-0.2 1.3-0.2c0-0.1-0.3-0.3-0.4-0.4zm-17 7.8h-1q0-0.6 0-1.1 0-0.6 0-1.1-0.1-0.6-0.1-1.1-0.1-0.6-0.1-1.1l-1.4 4.4h-0.8l-1.4-4.4q0 0.5 0 1.1-0.1 0.5-0.1 1.1 0 0.5 0 1.1 0 0.5-0.1 1.1h-0.8q0.1-3 0.4-5.5h1.2l1.3 4 1.3-4h1.1q0.4 3 0.5 5.5zm4-4.1q-0.6 3.1-1.5 4.5-0.7 1-1.6 1-0.2 0-0.6-0.1v-0.5q0.2 0 0.4 0 0.4 0 0.7-0.2 0.3-0.3 0.3-0.6 0-0.2-0.3-0.9l-1-3.2h0.9l0.8 2.4q0.2 0.8 0.2 1.1 0.6-1.6 0.8-3.5zm12.3 4.1h-2.6v-5.5h0.9v4.8h1.7zm-3.6 0.8l-1.4-0.8q-0.3 0.1-0.7 0.1-1.1 0-1.6-0.6-0.6-0.7-0.6-2.2 0-1.4 0.7-2.2 0.6-0.7 1.6-0.7 2.2 0 2.2 2.7 0 1.5-0.6 2.3-0.2 0.1-0.3 0.3l1 0.5c0 0-0.3 0.6-0.3 0.6zm-2-1.4q1.3 0 1.3-2.1 0-1.2-0.4-1.7-0.3-0.5-0.9-0.5-1.3 0-1.3 2.1 0 1.2 0.3 1.7 0.3 0.5 1 0.5zm-2.6-0.9q0 0.7-0.6 1.1-0.5 0.5-1.3 0.5-0.8 0-1.6-0.5l0.2-0.5q0.7 0.3 1.2 0.3 0.5 0 0.8-0.2 0.1 0 0.1-0.1 0.1-0.1 0.1-0.2 0.1 0 0.1-0.1 0-0.1 0-0.2 0-0.5-0.6-0.9c-0.4-0.2-1.2-0.6-1.2-0.6-0.4-0.3-0.6-0.6-0.6-1.2q0-0.7 0.4-1.1 0.5-0.4 1.2-0.4 0.8 0 1.4 0.4l-0.2 0.5q-0.1-0.1-0.2-0.1-0.2 0-0.3-0.1-0.1 0-0.3 0-0.1 0-0.2 0-0.5 0-0.7 0.2 0 0-0.1 0.1 0 0-0.1 0.1 0 0.1 0 0.1 0 0.1 0 0.2 0 0.5 0.6 0.8c0.4 0.3 1.2 0.7 1.2 0.7 0.5 0.3 0.7 0.6 0.7 1.2zm2.7-11.5q0 0 0.1 0.1 0 0.2-0.2 0.3v0.1q0-0.2-0.1-0.4c-0.1-0.1-0.2-0.1-0.2-0.2q0.1-0.1 0.2-0.1c0.1 0.1 0.2 0.1 0.2 0.2z"/></svg>