<svg version="1.2" xmlns="http://www.w3.org/2000/svg" viewBox="0 0 24 24" width="24" height="24"><style>.a{fill:#5691bc}</style><path fill-rule="evenodd" class="a" d="m22 16.4c-0.7 0.3-1.7 0.5-2.6 0.4h-0.2q0 0 0 0-0.1 0-0.1 0 0 0 0 0 0 0 0 0c-0.3-0.1-0.4 0-0.4 0q0 0-0.1 0.1c-0.1 1.2-0.4 3.2-0.5 4.1-0.3 1.7-1.1 2.5-2.9 2.9q-0.4 0.1-0.8 0.1c-1.7 0-2.2-1.4-2.5-1.9-0.2-0.7-0.3-2.9-0.3-5.1-0.9 0.8-2 1-3.4 0.7-0.1 0-0.8-0.2-1-0.6q-0.1-0.2-0.1-0.4c0-0.6 0.9-0.7 1.2-0.8 1.1-0.2 1.1-0.3 1.5-0.7q0-0.1 0-0.1 0.1 0 0.1-0.1 0 0 0.1-0.1 0 0 0 0 0 0 0 0 0 0 0 0 0 0 0 0 0 0 0 0-0.7-0.1-1.4-0.4c-0.3 0.4-1.1 1.2-1.9 2.2-0.7 0.9-1.4 0.9-1.9 0.7q-0.9-0.3-1.7-1.8-0.7-1.3-1.4-3.6c-0.8-2.4-1.2-4.9-1.3-5.7q-0.1-3.7 1.9-5.1c2.4-1.7 6.4-0.4 7.2-0.1q1.3-0.9 3.1-0.8 0.1 0 0.3 0 0.2 0 0.3 0 0.2 0 0.4 0 0.1 0.1 0.3 0.1 0 0 0.1 0 0.1 0 0.1 0 0.1 0 0.2 0.1 0 0 0.1 0c0.3-0.2 1.6-0.5 3.1-0.5 2.3 0 4.2 0.9 5.5 2.6q0 0 0 0 0 0 0.1 0.1 0 0 0 0 0 0.1 0 0.1c0.7 1.2 0.2 3.7-0.1 4.7-0.6 2.3-1.7 4.8-3 6.9 0.2 0.1 0.8 0.3 2.5 0q0.8-0.2 1 0.2 0 0 0 0 0 0 0 0.1 0 0 0 0 0.1 0 0.1 0c0.2 0.7-1 1.4-1.6 1.7zm-18.2-1q0.6 1.1 1.2 1.3c0.2 0.1 0.5 0.2 1.1-0.5 0.8-1 1.6-1.8 1.9-2.2q-0.1-0.1-0.2-0.2c-0.8-0.8-1.2-1.9-1-3.1 0.2-1.2 0.1-2.3 0.1-2.9q-0.1-0.2-0.1-0.4c0-0.2 0-3.7 2-5.7q0 0 0 0c-1.2-0.4-4.2-1.2-6.1 0.1q-1.7 1.2-1.5 4.5c0 0.7 0.4 3.1 1.2 5.6 0.4 1.5 0.9 2.7 1.4 3.5zm14.1 1.4q0.1-0.6 0.1-0.8c0-1.4 0.7-1.6 1.1-1.7q-0.1-0.2-0.2-0.3c-0.2-0.3-0.6-0.7-0.8-1.3 0 0-0.1-0.2-0.3-0.5-0.7-1.3-2.3-4.1-1.3-5.5q0.7-1 2.7-0.8c-0.2-0.5-0.6-1.5-1.4-2.4-0.8-1-2.1-2-4.1-2.4q-0.5-0.1-1.1-0.1-1.7 0-2.8 0.8 0 0.1-0.1 0.1 0 0 0 0 0 0 0 0-0.1 0-0.1 0 0 0-0.1 0.1 0 0 0 0-0.1 0.1-0.1 0.1 0 0.1-0.1 0.1c-1.3 1.3-1.6 3.4-1.7 4.5q0 0 0-0.1 0.1 0 0.1 0 0 0 0 0 0.1 0 0.1 0c0.3-0.2 1-0.5 1.7-0.6 1.2-0.1 2 0.4 2.2 1.5 0.7 3 0.1 4.3-0.4 5.2q-0.1 0.3-0.2 0.5v0.2q-0.2 0.5-0.3 0.9c0.3-0.1 0.6 0 0.7 0.1 0.4 0.1 0.6 0.5 0.8 0.9q0 0 0 0.1 0 0 0 0 0 0 0 0.1 0 0 0 0 0 0 0 0 0 0.1 0 0.1 0 0 0 0 0 0 0 0 0 0.5 0 0.9c0.3 0.8 0.4 2.1 0.3 2.7 0 1.1 0 1.9 0.2 2.5q0 0.1 0 0.1 0 0 0 0 0 0.1 0.1 0.1 0 0 0 0.1c0.2 0.7 0.5 1.5 2 1.2 1.5-0.4 2.3-1.2 2.4-2.6 0.1-0.6 0.1-0.8 0.2-1 0.1-0.3 0.1-0.4 0.1-0.9q0 0 0 0 0-0.1 0-0.1 0 0 0 0 0 0 0 0l0.2-0.5q0-0.3 0-0.6 0.1-0.4 0.1-0.7zm-7.2-4.4c0.4-0.9 0.9-2 0.3-4.7q-0.1-0.8-0.8-0.9c-1-0.3-2.3 0.5-2.6 0.7q0 0.1 0 0.3c0 0.6 0.1 1.7-0.1 3-0.1 1 0.1 1.9 0.8 2.5 0.5 0.5 1.1 0.8 1.8 0.8q0.1-0.5 0.3-1l0.1-0.1q0.1-0.3 0.2-0.6zm0.8 3.6c0.2-0.2 0.1-0.4 0.1-0.5-0.1-0.2-0.2-0.4-0.4-0.5-0.1 0-0.2-0.1-0.4 0.1q0 0 0 0 0 0 0 0-0.1 0.1-0.1 0.1 0 0 0 0-0.2 0.3-0.4 0.4c-0.4 0.6-0.6 0.8-1.9 1q-0.3 0.1-0.5 0.2 0.2 0.1 0.5 0.2c0.9 0.2 2.2 0.2 3.1-1zm8.4 0.1c0.7-0.1 1.3-0.2 1.7-0.4 0.5-0.2 0.8-0.4 1-0.6q-2.1 0.4-3-0.1 0 0 0 0-0.1-0.1-0.1-0.1 0 0 0 0 0 0 0 0-0.1 0-0.1 0 0 0 0 0 0 0 0 0-0.1 0-0.1 0c-0.3 0.1-0.6 0.2-0.6 1 0.1 0.1 0.5 0.2 1.2 0.2zm2.6-13q0 0 0 0 0 0 0 0 0 0 0 0 0-0.1-0.1-0.1-1.7-2.2-4.8-2.3c-0.8 0-1.5 0.1-2 0.2 1.2 0.6 2.1 1.4 2.7 2.1 1.1 1.3 1.7 2.7 1.7 3.2q0 0.1 0 0.2c0 0.5 0 1-0.1 1.4q-0.1 0.5-0.1 1.1 0 0.5 0.1 1.2c0.1 1 0.2 2.2-0.5 3.4v0.1q0 0 0.1 0 0 0 0 0 0 0 0 0 0 0.1 0 0.1c2.7-4.3 3.7-9.2 3-10.6zm-5.4 4c-0.7 1.1 0.7 3.7 1.3 4.8q0.3 0.4 0.4 0.6 0 0 0 0.1 0 0 0.1 0.1 0 0 0 0.1 0 0 0 0.1c0.5-0.9 0.4-1.8 0.3-2.7-0.1-0.5-0.2-0.9-0.1-1.4 0-0.4 0-0.8 0.1-1.1q0.1-0.5 0.1-1c-0.8-0.1-1.8-0.1-2.2 0.4zm-6.4 0.5c0 0.1-0.3 0.4-0.6 0.4q0 0 0 0 0 0-0.1 0 0 0 0 0 0 0 0 0c-0.2-0.1-0.4-0.2-0.5-0.3 0-0.1-0.1-0.2-0.1-0.3q0-0.1 0.1-0.2c0.1-0.1 0.3-0.1 0.6-0.1 0.3 0.1 0.6 0.2 0.6 0.5zm7.9-0.5q0 0.2-0.1 0.4c-0.1 0-0.2 0.1-0.4 0.2q0 0 0 0-0.1 0-0.1 0 0 0 0 0 0 0 0 0c-0.3 0-0.5-0.3-0.6-0.4 0-0.2 0.3-0.3 0.6-0.3 0.3-0.1 0.6 0 0.6 0.1z"/></svg>