<svg version="1.2" xmlns="http://www.w3.org/2000/svg" viewBox="0 0 24 24" width="24" height="24"><style>.a{fill:#5691bc}</style><path fill-rule="evenodd" class="a" d="m23.9 13.5c-0.8 6.6-6.9 11.2-13.4 10.4-6.6-0.8-11.2-6.9-10.4-13.4 0.8-6.6 6.9-11.2 13.4-10.4 6.6 0.8 11.2 6.9 10.4 13.4zm-13.9-2.2l1 1 4.4-4.5q0.1 0 0.1-0.1 0.1 0 0.2 0 0.1-0.1 0.1-0.1 0.1 0 0.2 0c-0.8-0.7-1.6-0.6-6 3.7zm1.7 1.7l4.7-4.1q0.2-0.2 0.2-0.4 0.1-0.3-0.1-0.5-0.2-0.2-0.5-0.2-0.2 0-0.4 0.2l-4.5 4.4zm-0.7-0.4l-0.7 0.7q0 0 0 0 0 0 0 0 0 0 0 0 0 0 0 0.1 0 0 0 0 0 0 0 0 0 0 0.1 0 0 0 0 0l1.1-0.2zm-2.3 0q0 0 0 0 0 0.1 0 0.1 0 0 0 0 0 0 0 0 0 0 0 0 0 0 0 0 0 0 0.1 0l1.9-0.4-0.8-0.9-1.2 1.2q0 0 0 0zm-1.5 6.2l-1.3-1.2-0.9 0.9q0 0 0 0 0 0 0 0.1 0 0 0 0 0 0 0 0 0 0 0 0 0 0 0 0 0 0 0 0.1 0 0 0 0zm5.4-4.7l-0.8-0.9-1.9 0.4-3.7 3.8 0.3 0.3 0.9 0.9q0 0 0.1 0 0 0 0.1 0 0 0 0 0 0-0.1 0-0.1l-0.2-0.9q0 0 0-0.1 0 0 0 0 0.1-0.1 0.1-0.1 0 0 0 0 3.2-1.6 5.1-3.3zm4.2-5.3q0 0.1 0 0.1 0 0-0.1 0 0 0 0 0 0 0.1 0 0.1l-4.7 4.1 0.8 0.8c2-1.8 3.8-3.7 4-5.1zm0.1-1q0.3 0.1 0.6 0.2 0.3 0 0.5 0 0.3-0.1 0.6-0.2l-1.3-1.2q0 0 0-0.1 0 0 0 0 0 0 0-0.1 0 0 0 0l1.6-1.6c-0.3-0.3-0.8-0.5-1.3-0.4-0.4 0-0.9 0.2-1.2 0.6-0.3 0.3-0.5 0.8-0.5 1.2 0.1 0.5 0.2 0.9 0.6 1.3q0.2 0.2 0.4 0.3zm2.2-2.9l-1.5 1.6 1.2 1.2q0 0 0.1-0.1 0 0 0 0 0.1 0 0.1-0.1 0 0 0.1 0c0.6-0.7 0.7-1.8 0-2.6zm-0.1 1q0 0 0.1 0 0 0 0 0 0 0 0 0.1 0.1 0.1 0.1 0.1 0 0.1 0 0.2 0 0.1 0 0.2-0.1 0.1-0.1 0.2 0 0-0.1 0 0 0 0 0 0 0.1 0 0.1 0 0 0 0-0.1 0-0.1 0 0 0 0 0 0-0.1 0-0.1 0 0 0 0 0 0-0.1 0 0 0 0-0.1 0 0 0 0 0 0 0-0.1 0.1 0 0.1-0.1 0 0 0-0.1 0.1 0 0-0.1 0-0.1 0-0.1 0 0 0-0.1 0 0 0 0 0 0 0 0 0-0.1 0.1-0.1 0 0 0 0z"/></svg>