<svg version="1.2" xmlns="http://www.w3.org/2000/svg" viewBox="0 0 24 24" width="24" height="24"><style>.a{fill:#5691bc}</style><path fill-rule="evenodd" class="a" d="m14.3 0.2l0.8 0.2 0.8 0.2 0.6 0.3 0.4 0.4 0.4 0.3 0.2 0.3 0.2 0.4 0.1 0.3v0.2 0.2 0.2 5.3 0.6l-0.2 0.6-0.2 0.4-0.2 0.4-0.3 0.3-0.4 0.3-0.3 0.2-0.4 0.1-0.3 0.1-0.3 0.1h-0.3-0.2-5.9l-0.7 0.1-0.6 0.1-0.5 0.3-0.4 0.2-0.4 0.3-0.2 0.4-0.2 0.4-0.2 0.3-0.1 0.4v0.3l-0.1 0.3v0.2 3h-2.2-0.2l-0.3-0.1-0.3-0.1-0.4-0.2-0.4-0.2-0.3-0.4-0.4-0.5-0.3-0.5-0.3-0.8-0.2-0.9-0.1-1-0.1-1.2 0.1-1.3 0.2-1 0.2-0.9 0.3-0.7 0.4-0.5 0.4-0.5 0.4-0.3 0.4-0.3 0.4-0.1 0.4-0.1 0.3-0.1h0.2 0.2 0.1 8.1v-0.8h-5.8v-2.7-0.4-0.4l0.1-0.3 0.2-0.2 0.2-0.3 0.3-0.2 0.4-0.2 0.5-0.2 0.5-0.2 0.6-0.1 0.6-0.1h0.7l0.8-0.1h0.8 1.3zm-6.3 2l-0.3 0.4v0.4 0.4l0.3 0.3 0.3 0.2 0.4 0.1 0.4-0.1 0.4-0.2 0.2-0.3 0.1-0.4-0.1-0.4-0.2-0.4-0.4-0.2-0.4-0.1-0.4 0.1zm13.1 4h0.3l0.3 0.1 0.4 0.2 0.3 0.3 0.4 0.3 0.3 0.5 0.3 0.6 0.3 0.7 0.2 0.9 0.2 1v1.3 1.2l-0.2 1-0.2 0.9-0.4 0.7-0.3 0.6-0.4 0.4-0.4 0.4-0.5 0.2-0.4 0.2-0.3 0.1h-0.3-0.3-0.1-8.3v0.8h5.9v2.8 0.4 0.3l-0.1 0.3-0.2 0.3-0.3 0.2-0.3 0.3-0.4 0.2-0.4 0.2-0.5 0.1-0.6 0.1-0.6 0.1-0.7 0.1h-0.8-0.8-1.3l-1.1-0.1-0.9-0.2-0.7-0.3-0.6-0.3-0.5-0.3-0.3-0.4-0.2-0.3-0.2-0.3-0.1-0.3v-0.3l-0.1-0.2v-0.1-5.3l0.1-0.7 0.1-0.5 0.2-0.5 0.3-0.4 0.3-0.3 0.3-0.2 0.4-0.2 0.3-0.2 0.4-0.1h0.3l0.2-0.1h0.2 0.2 5.8 0.7l0.6-0.2 0.5-0.2 0.4-0.3 0.3-0.3 0.3-0.3 0.2-0.4 0.1-0.4 0.1-0.3 0.1-0.3v-0.3l0.1-0.2v-3.1h2.1 0.1zm-6.5 14.3l-0.2 0.3-0.1 0.4 0.1 0.4 0.2 0.4 0.4 0.2 0.4 0.1 0.4-0.1 0.3-0.2 0.2-0.4 0.1-0.4-0.1-0.4-0.2-0.3-0.3-0.3h-0.4-0.4z"/></svg>