<svg version="1.2" xmlns="http://www.w3.org/2000/svg" viewBox="0 0 24 24" width="24" height="24"><style>.a{fill:#5691bc}</style><path fill-rule="evenodd" class="a" d="m18 1.6c1.3 0.8 1.7 3.3 1 6.4 3 0.9 5 2.4 5 4 0 1.6-2 3.1-5 4 0.7 3.1 0.4 5.6-1 6.4q-0.5 0.3-1.1 0.3c-1.3 0-3.1-1-4.9-2.6-1.8 1.6-3.5 2.6-4.9 2.6q-0.6 0-1.1-0.3c-1.3-0.8-1.7-3.3-1-6.4-3-0.9-5-2.4-5-4 0-1.6 2-3.1 5-4-0.7-3.1-0.4-5.6 1-6.4q0.5-0.3 1.1-0.3c1.3 0 3.1 1 4.9 2.6 1.8-1.6 3.5-2.6 4.9-2.6q0.6 0 1.1 0.3zm-8.2 6.6q-0.6 0.9-1.2 1.9-0.5 0.9-1 1.9 0.5 1 1 2 0.6 0.9 1.2 1.8 1.1 0.1 2.2 0.1 1.1 0 2.2-0.1 0.6-0.9 1.2-1.9 0.5-0.9 1-1.9-0.5-1-1-1.9-0.6-1-1.2-1.9-1.1-0.1-2.2-0.1-1.1 0-2.2 0.1zm3-3.5q1 1.1 2 2.4 1.7 0.2 3.1 0.6 0.2-0.8 0.3-1.5c0.2-1.8-0.1-3.3-0.8-3.7q-0.2-0.1-0.5-0.1c-1 0-2.5 0.8-4.1 2.3zm-6.3-2.1c-0.6 0.3-0.9 1.8-0.7 3.7q0.1 0.6 0.3 1.4 1.4-0.4 3.1-0.6 1-1.3 2-2.4c-1.6-1.5-3.1-2.3-4.1-2.3-0.2 0-0.4 0.1-0.6 0.2zm4.1 4.4q0.7 0 1.4 0 0.7 0 1.3 0-0.6-0.8-1.3-1.5-0.7 0.7-1.4 1.5zm3.6 5q0 0.4-0.1 0.9-0.2 0.4-0.5 0.7-0.3 0.3-0.7 0.5-0.5 0.1-0.9 0.1-0.4 0-0.9-0.1-0.4-0.2-0.7-0.5-0.3-0.3-0.5-0.7-0.1-0.5-0.1-0.9 0-0.4 0.1-0.9 0.2-0.4 0.5-0.7 0.3-0.3 0.7-0.5 0.4-0.1 0.9-0.1 0.4 0 0.8 0.1 0.5 0.2 0.8 0.5 0.3 0.3 0.5 0.7 0.1 0.5 0.1 0.9zm-7.9-3.3q0.3 1 0.7 2 0.3-0.6 0.7-1.2 0.3-0.6 0.7-1.1-1.1 0.1-2.1 0.3zm10 0.8q0.4 0.6 0.7 1.2 0.4-1 0.6-2-0.9-0.2-2-0.3 0.4 0.5 0.7 1.1zm1.3 2.5q0.7 1.5 1.1 3 0.7-0.3 1.4-0.5c1.7-0.8 2.8-1.7 2.8-2.5 0-0.8-1.1-1.7-2.8-2.5q-0.7-0.2-1.4-0.5-0.4 1.5-1.1 3zm-13.7-2.5c-1.7 0.8-2.8 1.7-2.8 2.5 0 0.8 1.1 1.7 2.8 2.5q0.7 0.3 1.4 0.5 0.4-1.5 1.1-3-0.7-1.5-1.1-3-0.7 0.3-1.4 0.5zm12.4 5q-0.3 0.6-0.7 1.2 1.1-0.2 2-0.4-0.2-1-0.6-2-0.3 0.6-0.7 1.2zm-9.9 0.8q0.9 0.2 2 0.4-0.4-0.6-0.7-1.2-0.4-0.6-0.7-1.2-0.4 1-0.6 2zm8.4 1.6q-1 1.3-2 2.4c1.6 1.5 3.1 2.3 4.1 2.3q0.3 0 0.6-0.1c0.6-0.4 0.9-1.9 0.7-3.8q-0.1-0.6-0.3-1.4-1.4 0.4-3.1 0.6zm-9 0.9c-0.2 1.8 0.1 3.3 0.8 3.7q0.2 0.1 0.5 0.1c1 0 2.5-0.8 4.1-2.3q-1-1.1-2-2.4-1.7-0.2-3.1-0.6-0.2 0.8-0.3 1.5zm6.2 0.7q0.7-0.7 1.4-1.5-0.7 0-1.4 0-0.7 0-1.4 0 0.7 0.8 1.4 1.5z"/></svg>