<svg version="1.2" xmlns="http://www.w3.org/2000/svg" viewBox="0 0 24 24" width="24" height="24"><style>.a{fill:#5691bc}</style><path fill-rule="evenodd" class="a" d="m23.3 3.4q0 0 0.1 0 0 0.1 0 0.1 0.1 0 0.1 0.1v20.2q0 0.1-0.1 0.1 0 0 0 0 0 0.1-0.1 0.1 0 0 0 0h-22.6q0 0-0.1 0 0 0 0-0.1 0 0 0 0-0.1 0-0.1-0.1v-23.6q0-0.1 0.1-0.1 0 0 0 0 0-0.1 0-0.1 0.1 0 0.1 0h20.8q0 0 0.1 0 0 0.1 0 0.1 0.1 0 0.1 0.1 0 0-0.1 0.1l-5.9 8q0 0.1-0.1 0.1 0 0-0.1 0 0 0-0.1 0 0 0-0.1-0.1l-2.1-2.3q0 0 0-0.1-0.1 0-0.1 0-0.1 0-0.1 0-0.1 0.1-0.1 0.1l-1.3 1.6q0 0 0 0.1 0 0 0 0 0 0.1 0 0.1 0 0.1 0 0.1l3.8 3.9q0.1 0 0.1 0 0 0.1 0.1 0.1 0 0 0.1-0.1 0 0 0.1 0l7.4-8.3q0-0.1 0.1-0.1zm-12.4 14.8c0-3.7-5.7-2.6-5.7-4.2 0-0.6 0.5-1 1.4-1q0.4 0 0.7 0 0.4 0.1 0.7 0.2 0.4 0.1 0.7 0.3 0.3 0.2 0.6 0.4 0.1 0.1 0.1 0.1 0 0 0.1 0 0 0 0.1-0.1 0 0 0 0l0.9-1.2q0.1 0 0.1-0.1 0 0 0-0.1 0 0 0 0 0-0.1-0.1-0.1-0.3-0.3-0.8-0.6-0.4-0.2-0.9-0.4-0.5-0.1-1-0.2-0.5-0.1-1-0.1c-2.3 0-3.7 1.4-3.7 3 0 3.8 5.7 2.6 5.7 4.3 0 0.6-0.6 1.1-1.7 1.1q-0.5 0-0.9 0-0.4-0.1-0.7-0.3-0.4-0.1-0.8-0.3-0.3-0.3-0.6-0.5 0-0.1-0.1-0.1 0 0-0.1 0 0 0-0.1 0 0 0.1 0 0.1l-0.9 1.2q0 0.1-0.1 0.1 0 0 0 0.1 0 0 0 0.1 0.1 0 0.1 0 0.4 0.4 0.9 0.7 0.4 0.3 1 0.4 0.5 0.2 1 0.3 0.6 0.1 1.1 0.1c2.7 0 4-1.4 4-3.2zm8.5-0.5c0-2.4-1.5-4.1-3.7-4.1q-0.8 0-1.5 0.3-0.7 0.3-1.2 0.9-0.6 0.5-0.9 1.2-0.3 0.7-0.2 1.5-0.1 0.8 0.2 1.5 0.3 0.7 0.9 1.3 0.5 0.6 1.3 0.8 0.7 0.3 1.5 0.3 0.4 0 0.8-0.1 0.4 0 0.7-0.1 0.4-0.2 0.7-0.3 0.4-0.2 0.7-0.4 0-0.1 0-0.1 0.1 0 0.1-0.1 0 0 0 0 0-0.1-0.1-0.1l-0.6-0.9q0-0.1-0.1-0.1 0 0 0 0-0.1 0-0.1 0 0 0-0.1 0-0.2 0.2-0.4 0.3-0.2 0.1-0.4 0.2-0.3 0-0.5 0.1-0.2 0-0.5 0-0.3 0.1-0.7 0-0.4-0.2-0.6-0.4-0.3-0.2-0.5-0.5-0.2-0.3-0.3-0.7 0 0 0 0 0 0 0-0.1 0 0 0.1 0 0 0 0 0h5.2q0 0 0.1 0 0 0 0 0 0-0.1 0.1-0.1 0 0 0-0.1zm-3.1-2.4q0.4 0.1 0.6 0.3 0.3 0.3 0.4 0.6 0.2 0.3 0.2 0.6 0 0 0 0 0 0 0 0 0 0 0 0 0 0.1-0.1 0.1h-3.4q-0.1 0-0.1-0.1 0 0 0 0 0 0 0 0 0 0 0 0 0-0.3 0.2-0.6 0.1-0.3 0.4-0.5 0.2-0.3 0.5-0.4 0.4-0.1 0.7-0.1 0.3 0 0.6 0.1z"/></svg>