<svg version="1.2" xmlns="http://www.w3.org/2000/svg" viewBox="0 0 24 24" width="24" height="24"><style>.a{fill:#5691bc}</style><path class="a" d="m19.4 11.5c-1.7 0.5-3.6 1.7-3.6 1.7 0 0 0.1-0.1 0.7-0.3 0.5-0.2 1.7-0.5 2.4-0.6-1.2 1.8-2.3 3.1-2.3 3.1 0 0-2.1 0.9-2.8 2.9q0.6-3.2 1.9-6.8c0.8-2.2 3.5-8 5.5-9.8-2.2 1.7-4.5 5.4-6.3 9.9-1 3.1-1.5 6-1.6 8.3-0.1 1.6 0 3 0.4 4l-0.2 0.1c-0.2-0.5-0.4-1.5-0.5-2.7q0-0.3 0-0.6 0-0.4 0-0.7-0.1-0.4 0-0.7 0-0.4 0-0.7v-0.2c0 0-0.2-1.4-0.5-2.5-0.2-0.5-0.3-0.9-0.5-1.2 0-0.1 0.1-0.6 0.3-1.4 0.1 0.2 0.6 1.1 0.7 1.4 0.2 0.4 0.2 0.5 0.2 0.5 0 0-0.3-1.5-0.8-2.4q0.2-0.6 0.4-1.2c0.2 0.3 0.5 1 0.7 1.3q0 0 0 0 0 0 0 0 0 0 0 0 0 0.1 0 0.1l0.1 0.1c0 0.2 0.1 0.4 0.1 0.3q-0.1-0.1-0.1-0.2 0-0.1 0-0.1 0-0.1-0.1-0.2 0-0.1 0-0.2c-0.1-0.5-0.3-1.1-0.6-1.6 0.7-3.1 2.6-7.3 4.7-9.5q0.1-0.1 0.2-0.1 0-0.1 0.1-0.2 0.1 0 0.1-0.1 0.1-0.1 0.2-0.1c1.2-1.1 2.4-1.5 3.5-0.6 2.5 2.3 0 7.4-2.3 11zm-1.9-10.4q-0.1 0.1-0.2 0.2c-2.3 2.3-4.2 6.5-4.8 9.7v0.4q0 0 0 0h-0.2q0 0.2-0.1 0.3 0 0.2-0.1 0.3 0 0.2-0.1 0.3 0 0.2-0.1 0.3l0.1 0.4q0 0.1 0 0.1h-0.2q0 0.2-0.1 0.3 0 0.1 0 0.3-0.1 0.1-0.1 0.2 0 0.1 0 0.3-0.1 0.2-0.1 0.4c0 0.1 0 0.2 0.1 0.4 0.1 0.2 0.3 0.6 0.4 1.1q0.1 0.3 0.1 0.5 0.1 0.3 0.1 0.6 0.1 0.3 0.2 0.6 0 0.3 0.1 0.6 0 0.1 0 0.2 0 0.4 0 0.7 0 0.4 0 0.7 0 0.3 0 0.7 0 0.3 0 0.6h-9.4q-0.4 0-0.7-0.1-0.3-0.1-0.6-0.4-0.2-0.3-0.4-0.6-0.1-0.3-0.1-0.7v-16.6q0-0.4 0.1-0.7 0.2-0.3 0.4-0.6 0.3-0.3 0.6-0.4 0.3-0.1 0.7-0.1z"/></svg>