<svg version="1.2" xmlns="http://www.w3.org/2000/svg" viewBox="0 0 24 24" width="24" height="24"><style>.a{fill:#5691bc}</style><path fill-rule="evenodd" class="a" d="m12 0q0 0 0 0 0 0 0 0 0 0 0 0c1.6 0 3.1 0.3 4.6 0.9 1.4 0.6 2.8 1.5 3.9 2.6 1.1 1.1 2 2.5 2.6 3.9 0.6 1.5 0.9 3 0.9 4.6 0 1.6-0.3 3.1-0.9 4.6-0.6 1.4-1.5 2.8-2.6 3.9-1.1 1.1-2.5 2-3.9 2.6-1.5 0.6-3 0.9-4.6 0.9-1.6 0-3.1-0.3-4.6-0.9-1.4-0.6-2.8-1.5-3.9-2.6-1.1-1.1-2-2.5-2.6-3.9-0.6-1.5-0.9-3-0.9-4.6 0-1.6 0.3-3.1 0.9-4.6 0.6-1.4 1.5-2.8 2.6-3.9 1.1-1.1 2.4-2 3.9-2.6 1.4-0.6 3-0.9 4.5-0.9q0.1 0 0.1 0zm0.4 8.9q-1.7 0.7-7 3-0.8 0.3-0.9 0.6c0 0.5 0.6 0.6 1.3 0.8 0.6 0.2 1.5 0.5 1.9 0.5q0.6 0 1.3-0.5 4.9-3.3 5.1-3.4c0 0 0.1 0 0.2 0.1 0.1 0 0.1 0.1 0.1 0.2-0.1 0.2-3.2 3-3.3 3.2-0.7 0.7-1.5 1.1-0.3 1.9 1 0.7 1.6 1.1 2.7 1.8 0.7 0.5 1.2 1 1.9 0.9 0.3 0 0.6-0.3 0.8-1.2 0.4-2.1 1.2-6.7 1.4-8.6 0-0.2 0-0.4-0.1-0.5q0-0.1 0-0.1 0 0 0-0.1 0 0-0.1-0.1 0 0 0 0c-0.2-0.2-0.4-0.2-0.5-0.2-0.4 0-1.1 0.3-4.5 1.7z"/></svg>