<svg version="1.2" xmlns="http://www.w3.org/2000/svg" viewBox="0 0 24 24" width="24" height="24"><style>.a{fill:#5691bc}</style><path fill-rule="evenodd" class="a" d="m23.9 2.2v19.3c0 1.4-1.1 2.5-2.5 2.5h-18.8c-1.4 0-2.5-1.1-2.5-2.5v-19.3c0-1.2 1-2.2 2.2-2.2h19.4c1.2 0 2.2 1 2.2 2.2zm-3.8 9.9c0.2-0.5 0.4-1 0.5-1.5 0.2-0.9 0.3-1.8 0.1-2.6-0.3-1.7-2-3.5-4.3-3.5-2.3 0-3.8 1.7-4.2 3.4q0 0.3-0.1 0.6-0.1-0.2-0.1-0.3c-0.2-1.8-2-3.4-3.8-3.6-2.1-0.2-3.7 1-4.4 2.4q-0.4 0.8-0.4 1.6-0.1 1.5 0.7 2.8 0.1 0.1 0 0.2c-0.3 0.6-0.6 1.2-0.6 1.9-0.1 0.9-0.2 1.8 0 2.6 0.6 2 2.6 3.3 4.7 3.1 1.7-0.2 2.9-1.2 3.6-2.8 0.2-0.3 0.2-0.7 0.3-1.1 0.1 0.3 0.1 0.6 0.2 1 0.7 1.8 2.7 3.4 5.3 2.7 1.8-0.4 3.1-2 3.2-3.9q0.1-1.4-0.7-2.6c-0.1-0.2-0.1-0.3 0-0.4zm-3.3-0.2q0.2 0.1 0.3 0.2 0.7 0.3 0.8 1 0 0.9 0 1.9c-0.1 0.7-0.7 1.3-1.5 1.3-0.7-0.1-1.4-0.6-1.4-1.4q0-0.6 0-1.3c0-0.2 0-0.2-0.3-0.2q-2 0-4 0c-0.9 0-1.5 0.4-1.5 1.4 0 0.4-0.1 0.7-0.4 1q-0.6 0.7-1.4 0.5c-0.6-0.1-0.9-0.5-1.1-1-0.1-0.4 0-0.8 0-1.1 0.4-1.8 1.4-3 3.2-3.6q0.5-0.2 1.1-0.2 1.4 0 2.8 0 0.2 0 0.4 0c0.7 0 1.1-0.5 1.2-1.3q0-0.1 0-0.2c0-0.8 0.6-1.4 1.4-1.5 0.8 0 1.4 0.6 1.5 1.4 0.1 1-0.3 2-0.9 2.9-0.1 0.1-0.2 0.1-0.2 0.2zm-8.6-1.5c-0.2 0-0.5 0.1-0.8 0q-0.8-0.1-1.1-0.9c-0.1-0.6 0-1.1 0.4-1.5 0.5-0.5 1-0.6 1.6-0.4 0.5 0.3 0.8 0.8 0.9 1.3 0 0.5 0 0.9 0 1.4q0 0.1-0.2 0.1-0.3 0-0.8 0z"/></svg>