<svg version="1.2" xmlns="http://www.w3.org/2000/svg" viewBox="0 0 2156 2160" width="2156" height="2160">
	<title>New Project</title>
	<path id="Path 0" fill-rule="evenodd" class="s0" d="m1089 19.6c24.5 0.2 50.3 0.9 63 1.9 11.8 0.8 28 2.2 36 3 8 0.9 21.5 2.4 30 3.6 8.5 1.1 22.5 3.1 31 4.5 8.5 1.3 22.7 3.8 31.5 5.5 8.8 1.7 24.8 5.1 35.5 7.5 10.7 2.4 27.2 6.5 36.5 9 9.3 2.5 23.1 6.3 30.5 8.5 7.4 2.2 22 6.9 32.5 10.4 10.5 3.4 27.1 9.3 37 13 9.9 3.7 26.3 10.3 36.5 14.5 10.2 4.3 24.3 10.5 31.5 13.8 7.2 3.2 22.7 10.8 34.5 16.7 11.8 5.9 29.6 15.3 39.5 20.7 9.9 5.5 24.8 14.1 33 19.1 8.3 5 22.9 14.2 32.5 20.5 9.6 6.3 23.6 15.7 31 21 7.4 5.3 21.6 15.7 31.4 23.1 9.9 7.5 26.1 20.4 36 28.7 10 8.3 25.3 21.6 34.1 29.5 8.8 7.9 25.9 24.3 38 36.4 12.1 12.1 28.5 29.2 36.4 38 7.9 8.8 21.2 24.1 29.5 34.1 8.3 9.9 21.2 26.1 28.7 36 7.4 9.8 17.8 24 23.1 31.4 5.3 7.4 14.7 21.4 21 31 6.3 9.6 15.5 24.3 20.5 32.5 5 8.2 13.6 23.1 19.1 33 5.4 9.9 14.8 27.7 20.7 39.5 5.9 11.8 13.5 27.4 16.7 34.5 3.3 7.1 9.5 21.3 13.8 31.5 4.2 10.2 10.8 26.6 14.5 36.5 3.7 9.9 9.6 26.5 13 37 3.5 10.5 8.1 25.1 10.4 32.5 2.2 7.4 6 21.1 8.5 30.5 2.5 9.4 6.6 25.8 9 36.5 2.5 10.7 6 27.8 8 38 1.9 10.2 4.8 27.5 6.5 38.5 1.6 11 3.7 25.9 4.5 33 0.9 7.1 2.2 20.2 3 29 0.8 8.8 2.1 24.1 2.8 34 0.7 10.7 1.2 37 1.2 64.5 0 27.5-0.5 53.8-1.2 64.5-0.7 9.9-2 25.2-2.8 34-0.8 8.8-2.1 21.8-3 29-0.8 7.2-2.9 22-4.5 33-1.7 11-4.6 28.3-6.5 38.5-2 10.2-5.5 27.3-8 38-2.4 10.7-6.5 27.2-9 36.5-2.5 9.3-6.3 23.1-8.5 30.5-2.2 7.4-7.3 23.4-11.4 35.5-4 12.1-10.5 30.3-14.5 40.5-3.9 10.2-11.2 28.2-16.3 40-5 11.8-16 35.2-24.3 52-8.4 16.8-19.1 37.5-23.9 46-4.8 8.5-12.8 22.3-17.8 30.5-4.9 8.2-14.6 23.5-21.5 34-6.8 10.5-16.3 24.4-21 31-4.7 6.6-14.7 20.1-22.1 29.9-7.5 9.9-20.4 26.1-28.7 36-8.3 10-21.6 25.3-29.5 34.1-7.9 8.8-24.3 25.9-36.4 38-12.1 12.1-29.2 28.5-38 36.4-8.8 7.9-24.1 21.2-34.1 29.5-9.9 8.3-26.1 21.2-36 28.7-9.8 7.4-23.3 17.4-29.9 22.1-6.6 4.7-20.5 14.2-31 21-10.5 6.9-25.8 16.6-34 21.5-8.3 5-22 13-30.5 17.7-8.5 4.8-26.3 14.1-39.5 20.8-13.2 6.6-29.8 14.8-37 18-7.2 3.3-21.3 9.5-31.5 13.8-10.2 4.2-26.6 10.8-36.5 14.5-9.9 3.7-26.5 9.6-37 13-10.5 3.5-25.1 8.1-32.5 10.4-7.4 2.2-21.2 6-30.5 8.5-9.3 2.5-25.8 6.6-36.5 9-10.7 2.5-27.8 6-38 8-10.2 1.9-27.5 4.8-38.5 6.5-11 1.6-25.8 3.7-33 4.5-7.2 0.9-20.2 2.2-29 3-8.8 0.8-24.1 2.1-34 2.8-10.7 0.7-37 1.2-64.5 1.2-27.5 0-53.8-0.5-64.5-1.2-9.9-0.7-25.2-2-34-2.8-8.8-0.8-21.9-2.1-29-3-7.1-0.8-22-2.9-33-4.5-11-1.7-28.3-4.6-38.5-6.5-10.2-2-27.3-5.5-38-8-10.7-2.4-27.1-6.5-36.5-9-9.4-2.5-23.1-6.3-30.5-8.5-7.4-2.3-22-6.9-32.5-10.4-10.5-3.4-27.1-9.3-37-13-9.9-3.7-26.3-10.3-36.5-14.5-10.2-4.3-24.4-10.5-31.5-13.8-7.1-3.2-23.8-11.4-37-18-13.2-6.7-31-16-39.5-20.8-8.5-4.7-22.3-12.7-30.5-17.7-8.3-5-22.9-14.2-32.5-20.5-9.6-6.3-23.6-15.7-31-21-7.4-5.3-21.6-15.7-31.4-23.1-9.9-7.5-26.1-20.4-36-28.7-10-8.3-25.3-21.6-34.1-29.5-8.8-7.9-25.9-24.3-38-36.4-12.1-12.1-28.5-29.2-36.4-38-7.9-8.8-21.2-24.1-29.5-34.1-8.3-9.9-21.2-26.1-28.7-36-7.4-9.8-17.8-24-23.1-31.4-5.3-7.4-14.7-21.4-21-31-6.3-9.6-15.5-24.3-20.5-32.5-5-8.3-13-22-17.7-30.5-4.8-8.5-14.1-26.3-20.8-39.5-6.6-13.2-14.8-29.8-18-37-3.3-7.2-9.5-21.3-13.8-31.5-4.2-10.2-10.8-26.6-14.5-36.5-3.7-9.9-9.6-26.5-13-37-3.5-10.5-8.1-25.1-10.4-32.5-2.2-7.4-6-21.2-8.5-30.5-2.5-9.3-6.6-25.8-9-36.5-2.5-10.7-6-27.8-8-38-1.9-10.2-4.8-27.5-6.5-38.5-1.6-11-3.7-25.8-4.5-33-0.9-7.2-2.2-20.2-3-29-0.8-8.8-2.1-24.1-2.8-34-0.7-10.7-1.2-37-1.2-64.5 0-27.5 0.5-53.8 1.2-64.5 0.7-9.9 2-25.2 2.8-34 0.8-8.8 2.1-21.9 3-29 0.8-7.1 2.9-22 4.5-33 1.7-11 4.6-28.3 6.5-38.5 2-10.2 5.5-27.3 8-38 2.4-10.7 6.5-27.1 9-36.5 2.5-9.4 6.3-23.1 8.5-30.5 2.2-7.4 6.9-22 10.4-32.5 3.4-10.5 9.3-27.1 13-37 3.7-9.9 10.3-26.3 14.5-36.5 4.3-10.2 10.5-24.4 13.8-31.5 3.2-7.1 10.8-22.7 16.7-34.5 5.9-11.8 15.3-29.6 20.7-39.5 5.5-9.9 14.1-24.8 19.1-33 5-8.3 14.2-22.9 20.5-32.5 6.3-9.6 15.7-23.6 21-31 5.3-7.4 15.7-21.6 23.1-31.4 7.5-9.9 20.4-26.1 28.7-36 8.3-10 21.6-25.3 29.5-34.1 7.9-8.8 24.3-25.9 36.4-38 12.1-12.1 29.2-28.5 38-36.4 8.8-7.9 24.1-21.2 34.1-29.5 9.9-8.3 26.1-21.2 36-28.7 9.8-7.4 24-17.8 31.4-23.1 7.4-5.3 21.4-14.7 31-21 9.6-6.3 24.3-15.5 32.5-20.5 8.3-5 23.1-13.6 33-19.1 9.9-5.4 27.7-14.8 39.5-20.7 11.8-5.9 27.4-13.5 34.5-16.7 7.1-3.3 21.3-9.5 31.5-13.8 10.2-4.2 26.6-10.8 36.5-14.5 9.9-3.7 26.5-9.6 37-13 10.5-3.5 25.1-8.2 32.5-10.4 7.4-2.2 21.1-6 30.5-8.5 9.4-2.5 25.8-6.6 36.5-9 10.7-2.5 27.8-6 38-8 10.2-1.9 27.5-4.8 38.5-6.5 11-1.6 25.9-3.7 33-4.5 7.1-0.9 20.2-2.2 29-3 8.8-0.8 24.1-2 34-2.6 9.9-0.6 21.4-1.2 25.5-1.4 4.1-0.2 26.2-0.2 49 0zm-64.5 403.9c-7.1 0.4-13.9 0.8-15 1-1.1 0.2-4.7 0.6-8 1-3.3 0.3-11.4 1.5-18 2.5-6.6 1.1-16.3 2.9-21.5 4.1-5.2 1.1-15.6 3.8-23 5.9-7.4 2.2-18.7 5.8-25 8.1-6.3 2.3-17.1 6.7-24 9.8-6.9 3.1-17 8.2-22.5 11.3-5.5 3.1-14.7 8.7-20.5 12.6-5.8 3.8-14.8 10.2-20 14.3-5.2 4-14.6 12.3-20.9 18.4-6.2 6-14.6 14.8-18.6 19.5-3.9 4.7-10 12.3-13.4 17-3.5 4.7-8.7 12.4-11.7 17.3-3 4.8-8.3 14.4-11.8 21.5-3.5 7-8.5 18.1-11.1 24.7-2.6 6.6-6.2 17.2-8 23.5-1.8 6.3-4.4 16.9-5.8 23.5-1.4 6.6-3.2 17.9-4.1 25-0.8 7.1-1.7 15.7-2 19-0.3 3.3-0.5 25.7-0.6 49.8v43.7h-158v229h158v619h278v-619h264.5v618.5h276l0.5-847.5h-541c0.7-68.2 0.8-71 2.9-78.5 1.3-4.4 3.7-11.1 5.5-15 1.8-3.9 4.7-9.2 6.6-12 1.9-2.7 5.5-7.2 8-9.9 2.5-2.7 7-6.8 10-9.1 3-2.3 8.4-5.8 12-7.7 3.6-2 9.9-4.8 14-6.3 4.1-1.4 11.8-3.6 17-4.7 9.2-2.1 12-2.2 98-2.5 48.7-0.2 89-0.5 89.5-0.7 0.7-0.2 1-39.2 1-114.2v-113.9c-173-0.3-223.4-0.2-223.6-0.1-0.2 0.2-6.2 0.7-13.4 1.1z"/>
</svg>