<svg version="1.2" xmlns="http://www.w3.org/2000/svg" viewBox="0 0 256 250" width="256" height="250">
	<title>github-icon-svg</title>
	<style>
		path { fill: #0d98f0 } 
	</style>
	<g id="Layer">
		<path d="m256 128c0 56.5-36.6 104.5-87.5 121.4-6.4 1.3-8.8-2.7-8.8-6.1 0-4.2 0.2-18 0.2-35.1 0-12-4.1-19.8-8.7-23.7 28.5-3.2 58.5-14 58.5-63.2 0-14-5-25.4-13.2-34.3 1.3-3.3 5.7-16.3-1.3-33.9 0 0-10.7-3.5-35.1 13.1-10.3-2.8-21.2-4.3-32.1-4.3-10.9 0-21.8 1.5-32 4.3-24.5-16.6-35.2-13.1-35.2-13.1-7 17.6-2.6 30.6-1.3 33.9-8.2 8.9-13.2 20.3-13.2 34.3 0 49.1 29.9 60 58.3 63.3-3.6 3.2-6.9 8.8-8.1 17.1-7.3 3.3-25.8 8.9-37.2-10.7 0 0-6.8-12.2-19.7-13.1 0 0-12.4-0.2-0.8 7.7 0 0 8.4 4 14.2 18.8 0 0 7.5 22.8 43.1 15.1 0.1 10.7 0.2 20.8 0.2 23.8 0 3.4-2.4 7.3-8.8 6.2-50.8-17-87.5-64.9-87.5-121.5 0-70.7 57.3-128 128-128 70.7 0 128 57.3 128 128zm-208.1 54.3c-0.2 0.7-1.2 0.9-2.2 0.4-0.9-0.4-1.4-1.3-1.1-1.9 0.3-0.6 1.3-0.8 2.2-0.4 0.9 0.4 1.5 1.3 1.1 1.9zm6.3 5.7c-0.6 0.5-1.8 0.3-2.6-0.6-0.8-0.9-1-2.1-0.4-2.7 0.7-0.6 1.8-0.3 2.7 0.6 0.8 0.9 1 2.1 0.3 2.7zm4.4 7.1c-0.8 0.6-2.1 0.1-2.9-1.1-0.8-1.1-0.8-2.5 0-3 0.8-0.6 2.1-0.1 2.9 1.1 0.8 1.1 0.8 2.5 0 3zm7.3 8.4c-0.7 0.7-2.2 0.5-3.3-0.5-1.1-1.1-1.5-2.5-0.8-3.3 0.8-0.8 2.3-0.5 3.4 0.5 1.1 1 1.4 2.5 0.7 3.3zm9.4 2.8c-0.3 1-1.7 1.4-3.2 1-1.4-0.4-2.4-1.6-2.1-2.6 0.3-1 1.7-1.5 3.2-1 1.5 0.4 2.4 1.6 2.1 2.6zm10.7 1.2c0.1 1-1.1 1.9-2.7 1.9-1.5 0.1-2.7-0.8-2.8-1.8 0-1.1 1.2-2 2.8-2 1.5 0 2.7 0.8 2.7 1.9zm10.6-0.4c0.2 1-0.9 2.1-2.4 2.3-1.5 0.3-2.8-0.3-3-1.3-0.2-1.1 0.9-2.2 2.3-2.4 1.6-0.3 2.9 0.3 3.1 1.4z"/>
	</g>
</svg>