<svg version="1.2" xmlns="http://www.w3.org/2000/svg" viewBox="0 0 256 193" width="256" height="193">
	<title>gmail-icon-svg</title>
	<style>
		path { fill: #0d98f0 } 
	</style>
	<g id="Layer">
		<path d="m58.2 192v-98.9l-30.7-28-27.5-15.6v125.1c0 9.7 7.8 17.4 17.5 17.4z"/>
		<path d="m197.8 192h40.7c9.7 0 17.5-7.8 17.5-17.4v-125.1l-31.2 17.8-27 25.8z"/>
		<path d="m58.2 93.1l-4.2-38.6 4.2-37 69.8 52.4 69.8-52.4 4.7 35-4.7 40.6-69.8 52.4z"/>
		<path d="m197.8 17.5v75.6l58.2-43.6v-23.3c0-21.6-24.6-33.9-41.9-20.9z"/>
		<path d="m0 49.5l26.8 20.1 31.4 23.5v-75.6l-16.3-12.2c-17.3-13-41.9-0.7-41.9 20.9z"/>
	</g>
</svg>