<svg version="1.2" xmlns="http://www.w3.org/2000/svg" viewBox="0 0 256 256" width="256" height="256">
	<title>telegram-icon-svg</title>
	<style>
		.s0 { fill: #e6e6e6 } 
	</style>
	<g id="Layer">
		<path id="Path 0" fill-rule="evenodd" class="s0" d="m131.5 0.5c10.7 0.3 19.6 1 24 2 3.8 0.9 10.4 2.8 14.5 4.2 4.1 1.4 10.7 4.1 14.5 6 3.8 2 10.6 5.9 15 8.8 4.4 2.9 11.8 8.8 16.4 13.1 4.6 4.4 11.2 11.7 14.8 16.4 3.5 4.7 8.5 12.8 11.2 18 2.7 5.2 6.3 13.9 8 19.3 1.7 5.3 3.8 13.6 4.6 18.4 0.8 4.9 1.5 14.4 1.5 21.3 0 6.9-0.7 16.6-1.5 21.5-0.9 4.9-3.1 13.5-4.9 19-1.9 5.5-4.8 12.9-6.6 16.5-1.8 3.6-5.7 10.3-8.8 15-3.1 4.7-10.2 13-15.7 18.6-5.6 5.6-13.7 12.5-18.5 15.6-4.7 3.1-11.7 7.2-15.5 9.1-3.8 1.9-11.1 4.8-16 6.5-4.9 1.6-12.2 3.6-16 4.3-4.4 0.9-13.6 1.4-25 1.4-13.7 0-20-0.5-26.5-1.9-4.7-1-12.1-3.1-16.5-4.7-4.4-1.7-11.8-5-16.5-7.5-4.7-2.5-12-7.1-16.4-10.2-4.3-3.1-11.7-9.8-16.4-14.7-4.7-4.9-10.6-12.2-13.2-16-2.6-3.8-6.6-10.7-8.9-15.3-2.2-4.5-5.3-11.7-6.7-15.9-1.4-4.3-3.5-12.2-4.5-17.6-1.3-6.6-1.9-14.1-1.9-23.4 0-8 0.6-17.6 1.5-22.8 0.9-5 2.9-12.9 4.5-17.8 1.7-4.8 4.9-12.4 7.1-16.9 2.3-4.6 6.4-11.7 9.2-15.8 2.8-4.1 9.6-12 15.1-17.6 5.6-5.6 13.5-12.4 17.6-15.1 4.1-2.8 11.1-6.8 15.5-9 4.4-2.2 11.2-5.2 15-6.6 3.8-1.3 10.6-3.2 15-4 4.4-0.9 9.3-1.8 11-2.1 1.7-0.2 10.7-0.3 20-0.1zm-22.5 103.5c-19.5 8.4-40.5 17.5-46.5 20.2-6 2.7-11.8 5.7-12.8 6.6-1 0.9-1.8 2.4-1.8 3.2 0 0.8 0.8 2.3 1.8 3.2 1 0.9 4.3 2.6 7.3 3.7 3 1.1 8.9 2.9 13 4.1 4.1 1.1 9.5 2 12 2 2.5 0 6.3-0.9 8.5-1.9 2.2-1 16.4-10 31.5-20.1 15.1-10.1 28.1-18.4 28.9-18.4 0.8-0.1 1.6 0.4 1.8 0.9 0.2 0.5-5.2 6.4-11.9 13-6.8 6.6-16.5 16.1-21.7 21-5.1 4.9-9.8 9.9-10.3 11-0.6 1.1-0.8 2.9-0.5 4 0.4 1.1 1.9 3.2 3.4 4.6 1.5 1.5 11.9 8.8 23.1 16.3 11.1 7.5 21.9 14 23.9 14.6 2.1 0.5 4.4 1 5.1 1 0.6 0 2.5-1.1 4.2-2.5 1.7-1.4 3.5-4.2 4-6.3 0.6-2 3.7-19.5 7-38.7 3.2-19.3 6.6-41.1 7.6-48.5 1.5-11.8 1.5-13.9 0.3-16.5-1.3-2.7-1.9-3-6.9-3.2-4.7-0.3-7.8 0.6-20.5 5.6-8.2 3.2-31 12.7-50.5 21.1z"/>
	</g>
</svg>